<?xml version="1.0" encoding="UTF-8" standalone="no"?>
<!DOCTYPE svg PUBLIC "-//W3C//DTD SVG 1.1//EN"
 "http://www.w3.org/Graphics/SVG/1.1/DTD/svg11.dtd">
<!-- Generated by graphviz version 2.43.0 (0)
 -->
<!-- Title: %3 Pages: 1 -->
<svg width="405pt" height="507pt"
 viewBox="0.00 0.00 405.39 506.74" xmlns="http://www.w3.org/2000/svg" xmlns:xlink="http://www.w3.org/1999/xlink">
<g id="graph0" class="graph" transform="scale(1 1) rotate(0) translate(4 502.74)">
<title>%3</title>
<polygon fill="white" stroke="transparent" points="-4,4 -4,-502.74 401.39,-502.74 401.39,4 -4,4"/>
<!-- Core -->
<g id="node1" class="node">
<title>Core</title>
<ellipse fill="lightcoral" stroke="lightcoral" cx="198.7" cy="-471.87" rx="198.89" ry="26.74"/>
<text text-anchor="middle" x="198.7" y="-475.67" font-family="Helvetica,sans-Serif" font-size="14.00">Core</text>
<text text-anchor="middle" x="198.7" y="-460.67" font-family="Helvetica,sans-Serif" font-size="14.00">(Global services, guards, interceptors)</text>
</g>
<!-- Shared -->
<g id="node2" class="node">
<title>Shared</title>
<polygon fill="lightgrey" stroke="lightgrey" points="355.7,-394 41.7,-394 41.7,-356 355.7,-356 355.7,-394"/>
<text text-anchor="middle" x="198.7" y="-378.8" font-family="Helvetica,sans-Serif" font-size="14.00">Shared</text>
<text text-anchor="middle" x="198.7" y="-363.8" font-family="Helvetica,sans-Serif" font-size="14.00">(Pipes, directives, utils, small components)</text>
</g>
<!-- Core&#45;&gt;Shared -->
<g id="edge1" class="edge">
<title>Core&#45;&gt;Shared</title>
<path fill="none" stroke="black" d="M198.7,-444.95C198.7,-432.35 198.7,-417.17 198.7,-404.28"/>
<polygon fill="black" stroke="black" points="202.2,-404.08 198.7,-394.08 195.2,-404.08 202.2,-404.08"/>
<text text-anchor="middle" x="230.2" y="-415.8" font-family="Times,serif" font-size="14.00">Provides</text>
</g>
<!-- Components -->
<g id="node3" class="node">
<title>Components</title>
<polygon fill="palegreen" stroke="palegreen" points="274.7,-305 122.7,-305 122.7,-267 274.7,-267 274.7,-305"/>
<text text-anchor="middle" x="198.7" y="-289.8" font-family="Helvetica,sans-Serif" font-size="14.00">Components</text>
<text text-anchor="middle" x="198.7" y="-274.8" font-family="Helvetica,sans-Serif" font-size="14.00">(UI building blocks)</text>
</g>
<!-- Shared&#45;&gt;Components -->
<g id="edge2" class="edge">
<title>Shared&#45;&gt;Components</title>
<path fill="none" stroke="black" d="M198.7,-355.97C198.7,-344.19 198.7,-328.56 198.7,-315.16"/>
<polygon fill="black" stroke="black" points="202.2,-315 198.7,-305 195.2,-315 202.2,-315"/>
<text text-anchor="middle" x="236.2" y="-326.8" font-family="Times,serif" font-size="14.00">Reused by</text>
</g>
<!-- Features -->
<g id="node4" class="node">
<title>Features</title>
<polygon fill="lightpink" stroke="lightpink" points="333.7,-216 63.7,-216 63.7,-178 333.7,-178 333.7,-216"/>
<text text-anchor="middle" x="198.7" y="-200.8" font-family="Helvetica,sans-Serif" font-size="14.00">Features</text>
<text text-anchor="middle" x="198.7" y="-185.8" font-family="Helvetica,sans-Serif" font-size="14.00">(Business logic, services, interfaces)</text>
</g>
<!-- Components&#45;&gt;Features -->
<g id="edge3" class="edge">
<title>Components&#45;&gt;Features</title>
<path fill="none" stroke="black" d="M198.7,-266.97C198.7,-255.19 198.7,-239.56 198.7,-226.16"/>
<polygon fill="black" stroke="black" points="202.2,-226 198.7,-216 195.2,-226 202.2,-226"/>
<text text-anchor="middle" x="231.7" y="-237.8" font-family="Times,serif" font-size="14.00">Compose</text>
</g>
<!-- Pages -->
<g id="node5" class="node">
<title>Pages</title>
<polygon fill="lightyellow" stroke="lightyellow" points="277.2,-127 120.2,-127 120.2,-89 277.2,-89 277.2,-127"/>
<text text-anchor="middle" x="198.7" y="-111.8" font-family="Helvetica,sans-Serif" font-size="14.00">Pages</text>
<text text-anchor="middle" x="198.7" y="-96.8" font-family="Helvetica,sans-Serif" font-size="14.00">(Route&#45;linked views)</text>
</g>
<!-- Features&#45;&gt;Pages -->
<g id="edge4" class="edge">
<title>Features&#45;&gt;Pages</title>
<path fill="none" stroke="black" d="M198.7,-177.97C198.7,-166.19 198.7,-150.56 198.7,-137.16"/>
<polygon fill="black" stroke="black" points="202.2,-137 198.7,-127 195.2,-137 202.2,-137"/>
<text text-anchor="middle" x="241.7" y="-148.8" font-family="Times,serif" font-size="14.00">Orchestrate</text>
</g>
<!-- Layouts -->
<g id="node6" class="node">
<title>Layouts</title>
<polygon fill="lightblue" stroke="lightblue" points="375.2,-38 372.2,-42 351.2,-42 348.2,-38 22.2,-38 22.2,0 375.2,0 375.2,-38"/>
<text text-anchor="middle" x="198.7" y="-22.8" font-family="Helvetica,sans-Serif" font-size="14.00">Layouts</text>
<text text-anchor="middle" x="198.7" y="-7.8" font-family="Helvetica,sans-Serif" font-size="14.00">(Shell with router&#45;outlet, navbar, sidebar, footer)</text>
</g>
<!-- Pages&#45;&gt;Layouts -->
<g id="edge5" class="edge">
<title>Pages&#45;&gt;Layouts</title>
<path fill="none" stroke="black" d="M198.7,-88.97C198.7,-77.19 198.7,-61.56 198.7,-48.16"/>
<polygon fill="black" stroke="black" points="202.2,-48 198.7,-38 195.2,-48 202.2,-48"/>
<text text-anchor="middle" x="258.2" y="-59.8" font-family="Times,serif" font-size="14.00">Rendered within</text>
</g>
</g>
</svg>
