<?xml version="1.0" encoding="UTF-8" standalone="no"?>
<!DOCTYPE svg PUBLIC "-//W3C//DTD SVG 1.1//EN"
 "http://www.w3.org/Graphics/SVG/1.1/DTD/svg11.dtd">
<!-- Generated by graphviz version 2.43.0 (0)
 -->
<!-- Title: %3 Pages: 1 -->
<svg width="360pt" height="342pt"
 viewBox="0.00 0.00 360.00 342.00" xmlns="http://www.w3.org/2000/svg" xmlns:xlink="http://www.w3.org/1999/xlink">
<g id="graph0" class="graph" transform="scale(1 1) rotate(0) translate(4 338)">
<title>%3</title>
<polygon fill="white" stroke="transparent" points="-4,4 -4,-338 356,-338 356,4 -4,4"/>
<!-- Shared -->
<g id="node1" class="node">
<title>Shared</title>
<polygon fill="lightgrey" stroke="lightgrey" points="333,-334 19,-334 19,-296 333,-296 333,-334"/>
<text text-anchor="middle" x="176" y="-318.8" font-family="Helvetica,sans-Serif" font-size="14.00">Shared</text>
<text text-anchor="middle" x="176" y="-303.8" font-family="Helvetica,sans-Serif" font-size="14.00">(pipes, utils, directives, small components)</text>
</g>
<!-- Components -->
<g id="node2" class="node">
<title>Components</title>
<polygon fill="palegreen" stroke="palegreen" points="283.5,-260 68.5,-260 68.5,-222 283.5,-222 283.5,-260"/>
<text text-anchor="middle" x="176" y="-244.8" font-family="Helvetica,sans-Serif" font-size="14.00">Components</text>
<text text-anchor="middle" x="176" y="-229.8" font-family="Helvetica,sans-Serif" font-size="14.00">(UI blocks: table, card, form)</text>
</g>
<!-- Shared&#45;&gt;Components -->
<g id="edge1" class="edge">
<title>Shared&#45;&gt;Components</title>
<path fill="none" stroke="black" d="M176,-295.83C176,-288.13 176,-278.97 176,-270.42"/>
<polygon fill="black" stroke="black" points="179.5,-270.41 176,-260.41 172.5,-270.41 179.5,-270.41"/>
</g>
<!-- Features -->
<g id="node3" class="node">
<title>Features</title>
<polygon fill="lightpink" stroke="lightpink" points="310.5,-186 41.5,-186 41.5,-148 310.5,-148 310.5,-186"/>
<text text-anchor="middle" x="176" y="-170.8" font-family="Helvetica,sans-Serif" font-size="14.00">Features</text>
<text text-anchor="middle" x="176" y="-155.8" font-family="Helvetica,sans-Serif" font-size="14.00">(business logic, services, interfaces)</text>
</g>
<!-- Components&#45;&gt;Features -->
<g id="edge2" class="edge">
<title>Components&#45;&gt;Features</title>
<path fill="none" stroke="black" d="M176,-221.83C176,-214.13 176,-204.97 176,-196.42"/>
<polygon fill="black" stroke="black" points="179.5,-196.41 176,-186.41 172.5,-196.41 179.5,-196.41"/>
</g>
<!-- Pages -->
<g id="node4" class="node">
<title>Pages</title>
<polygon fill="lightyellow" stroke="lightyellow" points="252.5,-112 99.5,-112 99.5,-74 252.5,-74 252.5,-112"/>
<text text-anchor="middle" x="176" y="-96.8" font-family="Helvetica,sans-Serif" font-size="14.00">Pages</text>
<text text-anchor="middle" x="176" y="-81.8" font-family="Helvetica,sans-Serif" font-size="14.00">(route&#45;linked views)</text>
</g>
<!-- Features&#45;&gt;Pages -->
<g id="edge3" class="edge">
<title>Features&#45;&gt;Pages</title>
<path fill="none" stroke="black" d="M176,-147.83C176,-140.13 176,-130.97 176,-122.42"/>
<polygon fill="black" stroke="black" points="179.5,-122.41 176,-112.41 172.5,-122.41 179.5,-122.41"/>
</g>
<!-- Layouts -->
<g id="node5" class="node">
<title>Layouts</title>
<polygon fill="lightblue" stroke="lightblue" points="352,-38 349,-42 328,-42 325,-38 0,-38 0,0 352,0 352,-38"/>
<text text-anchor="middle" x="176" y="-22.8" font-family="Helvetica,sans-Serif" font-size="14.00">Layouts</text>
<text text-anchor="middle" x="176" y="-7.8" font-family="Helvetica,sans-Serif" font-size="14.00">(shell with router&#45;outlet, navbar, sidebar, footer)</text>
</g>
<!-- Pages&#45;&gt;Layouts -->
<g id="edge4" class="edge">
<title>Pages&#45;&gt;Layouts</title>
<path fill="none" stroke="black" d="M176,-73.83C176,-66.13 176,-56.97 176,-48.42"/>
<polygon fill="black" stroke="black" points="179.5,-48.41 176,-38.41 172.5,-48.41 179.5,-48.41"/>
</g>
</g>
</svg>
